<svg id="Layer_1" data-name="Layer 1" xmlns="http://www.w3.org/2000/svg" width="42.76mm" height="9.68mm" viewBox="0 0 121.2 27.44"><g id="Layer_2" data-name="Layer 2"><g id="Layer_1-2" data-name="Layer 1-2"><path d="M14.7,15.84l-4-4.41H4.77V9h6.59a2.92,2.92,0,0,0,2.23-.82,3.32,3.32,0,0,0,.77-2.36,3,3,0,0,0-.8-2.3,3.09,3.09,0,0,0-2.23-.74H2.74V15.84H0V0H11.36a6.83,6.83,0,0,1,2.42.4,4.88,4.88,0,0,1,1.83,1.16,5.21,5.21,0,0,1,1.12,1.79,7.11,7.11,0,0,1,.39,2.38,6.15,6.15,0,0,1-.86,3.35A4.88,4.88,0,0,1,13.85,11l4.76,4.81Z" style="fill:#ededee"/><path d="M20.07,15.84V0H34.19V2.77H22.79v10.3H34.21v2.77Zm4.75-6.92V6.62H33.6v2.3Z" style="fill:#ededee"/><path d="M49.06,10.54l-2.45,4.64a1.76,1.76,0,0,1-.61.66,1.65,1.65,0,0,1-2.22-.63v0L35.52,0h3.34l6.4,12.17,2.35-4.31L43.49,0h3.34L53,12.17,59.4,0h3.05L54.31,15.18a1.81,1.81,0,0,1-.63.66,1.66,1.66,0,0,1-.81.21,1.63,1.63,0,0,1-.81-.21,1.68,1.68,0,0,1-.61-.66Z" style="fill:#ededee"/><path d="M69.3,15.84a7.62,7.62,0,0,1-5.49-2.32A7.49,7.49,0,0,1,62.2,11a8.65,8.65,0,0,1-.58-3.14,8.23,8.23,0,0,1,.58-3.18,6.92,6.92,0,0,1,1.61-2.45A7.19,7.19,0,0,1,66.25.56a8.16,8.16,0,0,1,3-.56h3.86a8.49,8.49,0,0,1,3.15.57,7,7,0,0,1,4,4,8.32,8.32,0,0,1,.57,3.2A8.69,8.69,0,0,1,80.29,11a8,8,0,0,1-1.61,2.57,7.68,7.68,0,0,1-2.45,1.69,7.89,7.89,0,0,1-3.11.63Zm3.86-2.77a4.9,4.9,0,0,0,2-.4,4.65,4.65,0,0,0,1.58-1.12,4.82,4.82,0,0,0,1-1.65,5.92,5.92,0,0,0,0-4.12A4.7,4.7,0,0,0,75.16,3.1a5.08,5.08,0,0,0-2-.38H69.3a4.94,4.94,0,0,0-2,.38,4.63,4.63,0,0,0-1.55,1.12,4.68,4.68,0,0,0-1,1.6,5.66,5.66,0,0,0-.36,2.08A5.59,5.59,0,0,0,64.75,10a5,5,0,0,0,1,1.64,4.64,4.64,0,0,0,1.55,1.11,4.79,4.79,0,0,0,2,.4Z" style="fill:#ededee"/><path d="M90.38,15.84a7.69,7.69,0,0,1-3.06-.63,7.91,7.91,0,0,1-2.44-1.69A7.47,7.47,0,0,1,83.28,11a8.45,8.45,0,0,1-.58-3.14,8.23,8.23,0,0,1,.58-3.18,6.89,6.89,0,0,1,1.6-2.45A7.38,7.38,0,0,1,87.32.56,8.22,8.22,0,0,1,90.38,0h3.86a8.44,8.44,0,0,1,3.14.57,7.37,7.37,0,0,1,2.45,1.58,7.27,7.27,0,0,1,1.64,2.46,8.31,8.31,0,0,1,.52,3.2,8.76,8.76,0,0,1-.58,3.2,7.87,7.87,0,0,1-1.61,2.56,7.56,7.56,0,0,1-5.56,2.32Zm3.86-2.77a4.88,4.88,0,0,0,2-.4A4.68,4.68,0,0,0,98.85,10a5.64,5.64,0,0,0,.39-2.07,5.59,5.59,0,0,0-.36-2.06,4.89,4.89,0,0,0-1-1.62,5,5,0,0,0-1.58-1.11,5.12,5.12,0,0,0-2-.38H90.38a5,5,0,0,0-2,.38,4.8,4.8,0,0,0-2.54,2.72,5.65,5.65,0,0,0-.37,2.07A5.83,5.83,0,0,0,85.86,10a5,5,0,0,0,1,1.65,4.64,4.64,0,0,0,1.55,1.11,4.76,4.76,0,0,0,2,.4Z" style="fill:#ededee"/><path d="M104.23,15.84V0h9.16a8.15,8.15,0,0,1,3.09.57,7.07,7.07,0,0,1,2.45,1.58,7.38,7.38,0,0,1,1.59,2.46,8.11,8.11,0,0,1,.58,3.2,8.76,8.76,0,0,1-.58,3.2,7.81,7.81,0,0,1-1.59,2.56,7.56,7.56,0,0,1-5.54,2.32Zm9.16-2.77a4.8,4.8,0,0,0,2-.4,4.67,4.67,0,0,0,1.56-1.12,4.67,4.67,0,0,0,1-1.65,5.59,5.59,0,0,0,.36-2.06A5.59,5.59,0,0,0,118,5.78a4.69,4.69,0,0,0-1-1.62,4.78,4.78,0,0,0-1.56-1.11,5,5,0,0,0-2-.38H107V13Z" style="fill:#ededee"/><path d="M60.8,21.35h0a.65.65,0,0,0-.19-.42.59.59,0,0,0-.42-.17h-.12v-.1h.75Zm0,5.23v.69h-.75v-.09h.17a.59.59,0,0,0,.41-.18.65.65,0,0,0,.19-.42Zm1.9-5.92v6.61H60.77V20.66Zm2.64,0v.53H62.68v-.48Zm-.5,3.11v.48H62.68v-.48Zm-2.16,2.81h0a.61.61,0,0,0,.19.42.58.58,0,0,0,.41.18h.12v.09h-.74Zm2.16-3.88v1.12H63.73a1,1,0,0,0,1-1v0h0Zm0,1.53v1.12h-.09a1,1,0,0,0-1-1h-.07Zm.5-3.11v1.32h-.08v-.08A1.15,1.15,0,0,0,64,21.13h1.31Zm0-.62v.26l-1.11-.1h.43l.44-.06Z" style="fill:#ededee"/><path d="M66.67,20.66v.53h0a.5.5,0,0,0-.14-.35.6.6,0,0,0-.36-.12H66v-.1Zm1.91,0v4.15a2.72,2.72,0,0,0,.21,1.12,1.55,1.55,0,0,0,1.51,1,1.7,1.7,0,0,0,.93-.24,1.48,1.48,0,0,0,.58-.68A2.37,2.37,0,0,0,72,24.87V20.66h.83v4.19a2.66,2.66,0,0,1-.34,1.37,2.3,2.3,0,0,1-1,.88,3.71,3.71,0,0,1-1.54.3,5.17,5.17,0,0,1-1.91-.3A2.25,2.25,0,0,1,67,26.22a2.44,2.44,0,0,1-.36-1.36v-4.2Zm.66,0v.1h-.1a.59.59,0,0,0-.36.13.49.49,0,0,0-.15.34h0v-.57Zm2.82,0v.53h0a.47.47,0,0,0-.15-.35.55.55,0,0,0-.35-.12h-.19v-.1Zm1.44,0v.1h-.16a.56.56,0,0,0-.35.13.44.44,0,0,0-.14.34h0v-.57Z" style="fill:#ededee"/><path d="M74.62,21.35h0a.57.57,0,0,0-.19-.42.58.58,0,0,0-.41-.17H73.9v-.1h.74Zm0,5.23v.69h-.74v-.09H74a.59.59,0,0,0,.41-.18.61.61,0,0,0,.19-.42Zm1.92-5.92v6.61H74.6V20.66Zm1,0a4.89,4.89,0,0,1,.85.08,2.33,2.33,0,0,1,.82.27,1.54,1.54,0,0,1,.82,1.44,2,2,0,0,1-.13.73,1.58,1.58,0,0,1-.46.68,1.87,1.87,0,0,1-.92.38,1.74,1.74,0,0,1,.69.38,3.58,3.58,0,0,1,.47.56l.09.17.19.32a4.37,4.37,0,0,0,.25.4l.27.39a3.08,3.08,0,0,0,.37.44,1,1,0,0,0,.33.21,1.78,1.78,0,0,0,.39.07v.09H80.42a9.26,9.26,0,0,1-1-.07,2.25,2.25,0,0,1-.86-.29,2,2,0,0,1-.68-.72,1.77,1.77,0,0,1-.16-.34,1.21,1.21,0,0,0-.11-.32,1.25,1.25,0,0,1-.08-.32l-.07-.28-.07-.25a1.07,1.07,0,0,0-.22-.47,1,1,0,0,0-.27-.17V24H77a1,1,0,0,0,.47-.12,1,1,0,0,0,.34-.38,1.68,1.68,0,0,0,.19-.66V22.4a1.35,1.35,0,0,0-.34-1,1,1,0,0,0-.73-.24h-.43l-.1-.49Zm-1,5.92h0a.62.62,0,0,0,.6.6h.11v.09H76.5Z" style="fill:#ededee"/><path d="M82,26.6v.67h-.78v-.09h.19a.54.54,0,0,0,.4-.17A.55.55,0,0,0,82,26.6Zm0-6.08,2,2v4.71H82V21.69a6.65,6.65,0,0,0-.12-1.18Zm0,0,6.37,5.66.12,1.22-6.42-5.65Zm2,6.08a.53.53,0,0,0,.16.41.59.59,0,0,0,.42.17h.18v.09h-.8V26.6Zm1.78-5.94h.78v.67h0a.58.58,0,0,0-.17-.41.62.62,0,0,0-.41-.16h-.18Zm2.7,0v5.58q0,.33,0,.66a5.07,5.07,0,0,0,.09.54h-.11l-2-2.23V20.66Zm.75,0v.1H89a.58.58,0,0,0-.58.56h0v-.67Z" style="fill:#ededee"/><path d="M90.18,21.35h0a.65.65,0,0,0-.19-.42.58.58,0,0,0-.41-.17h-.15v-.1h.75Zm0,5.23v.69h-.75v-.09h.12A.6.6,0,0,0,90,27a.65.65,0,0,0,.19-.42Zm1.9-5.92v6.61H90.16V20.66Zm0,.7v-.7h.75v.1h-.11a.59.59,0,0,0-.42.17.57.57,0,0,0-.19.42Zm0,5.22h0a.65.65,0,0,0,.19.42.58.58,0,0,0,.43.18h.11v.09h-.75Z" style="fill:#ededee"/><path d="M93.18,20.49l.29.07.43.07h.44l-1.12.11Zm6.41.16v.54H93.18v-.48Zm-5.1.45h0a1.18,1.18,0,0,0-.89.33,1.23,1.23,0,0,0-.32.9v.06h-.1V21.1Zm1,5.48v.69h-.76v-.09h.09a.62.62,0,0,0,.43-.18.7.7,0,0,0,.18-.42Zm1.9-5.88v6.57H95.42V20.7Zm0,5.88h0a.57.57,0,0,0,.19.42.56.56,0,0,0,.42.18h.17v.09h-.76Zm2.23-5.48v1.33h-.1v-.07a1.2,1.2,0,0,0-.31-.89,1.18,1.18,0,0,0-.91-.34h0Zm0-.61v.27l-1.12-.11h.44l.43-.06.26-.1Z" style="fill:#ededee"/><path d="M100.64,20.66v.53h0a.47.47,0,0,0-.15-.35.55.55,0,0,0-.35-.12H100v-.1Zm1.9,0v4.15a3.09,3.09,0,0,0,.21,1.12,1.52,1.52,0,0,0,1.51,1,1.68,1.68,0,0,0,.93-.24,1.56,1.56,0,0,0,.59-.68,2.64,2.64,0,0,0,.21-1.11V20.66h.81v4.19a2.65,2.65,0,0,1-.33,1.37,2.27,2.27,0,0,1-1,.88,3.68,3.68,0,0,1-1.54.3,5.06,5.06,0,0,1-1.89-.3,2.32,2.32,0,0,1-1.12-.88,2.61,2.61,0,0,1-.36-1.36v-4.2Zm.65,0v.1h-.14a.59.59,0,0,0-.36.13.41.41,0,0,0-.1.3h0v-.57Zm2.82,0v.53h0a.47.47,0,0,0-.15-.35.55.55,0,0,0-.35-.12h-.16v-.1Zm1.44,0v.1h-.14a.59.59,0,0,0-.36.13.45.45,0,0,0-.15.34h0v-.57Z" style="fill:#ededee"/><path d="M108.59,21.35h0a.62.62,0,0,0-.18-.42.61.61,0,0,0-.42-.17h-.16v-.1h.76Zm0,5.23v.69h-.76v-.09H108a.62.62,0,0,0,.43-.18.59.59,0,0,0,.17-.42Zm1.92-5.92v6.61h-2V20.66Zm1,0a5.12,5.12,0,0,1,.87.08,2.28,2.28,0,0,1,.81.27,1.67,1.67,0,0,1,.6.55,1.73,1.73,0,0,1,.22.89,2,2,0,0,1-.14.73,1.51,1.51,0,0,1-.45.68,1.83,1.83,0,0,1-.92.38,1.73,1.73,0,0,1,.69.38,3,3,0,0,1,.46.56l.1.17c0,.09.11.19.19.32s.16.27.25.4l.26.39a5.46,5.46,0,0,0,.38.44.81.81,0,0,0,.33.21,2.44,2.44,0,0,0,.39.07v.09h-1.18a9.1,9.1,0,0,1-1-.07,2.31,2.31,0,0,1-.86-.29,1.93,1.93,0,0,1-.67-.72,1.11,1.11,0,0,1-.18-.34,1.21,1.21,0,0,0-.11-.32c0-.1,0-.22-.08-.32a2.33,2.33,0,0,1-.05-.28l-.07-.25a1.05,1.05,0,0,0-.24-.47.85.85,0,0,0-.25-.17V24H111a.85.85,0,0,0,.47-.12,1.19,1.19,0,0,0,.36-.38,2.17,2.17,0,0,0,.19-.66v-.16a.89.89,0,0,0,0-.23,1.31,1.31,0,0,0-.35-1,1,1,0,0,0-.72-.28h-.45l-.07-.49Zm-1,5.92h0a.6.6,0,0,0,.18.42.56.56,0,0,0,.42.18h.12v.09h-.75Z" style="fill:#ededee"/><path d="M116,21.35h0a.69.69,0,0,0-.18-.42.63.63,0,0,0-.43-.17h-.12v-.1h.76Zm0,5.23v.69h-.76v-.09h.12a.62.62,0,0,0,.6-.6Zm1.89-5.92v6.61h-2V20.66Zm2.64,0v.53H117.9v-.48Zm-.49,3.11v.48h-2.23v-.48Zm.36,3,.38.48H118v-.48Zm.77-1.7-.36,2.23h-2l.35-.48a1.82,1.82,0,0,0,.83-.2,2.18,2.18,0,0,0,.7-.58,2.7,2.7,0,0,0,.42-.93Zm-1.12-2.38V23.8H119a1.07,1.07,0,0,0,.74-.3,1,1,0,0,0,.27-.74h0Zm0,1.53v1.11H120a1,1,0,0,0-1-1H119Zm.5-3.11v1.31h-.15v-.07a1.12,1.12,0,0,0-1.21-1.23h1.36Zm0-.63v.27l-1.12-.1h.44l.43-.07Z" style="fill:#ededee"/></g></g></svg>