<svg xmlns="http://www.w3.org/2000/svg" width="108.64" height="24.57" viewBox="0 0 108.64 24.57"><g id="Layer_2" data-name="Layer 2"><g id="Layer_1-2" data-name="Layer 1"><path d="M13.18,14.2,9.59,10.25H4.28V8.06h5.91a2.63,2.63,0,0,0,2-.73,3,3,0,0,0,.69-2.12,2.7,2.7,0,0,0-.72-2.06,2.78,2.78,0,0,0-2-.67H2.46V14.2H0V0H10.19a6.13,6.13,0,0,1,2.17.36A4.39,4.39,0,0,1,14,1.4,4.61,4.61,0,0,1,15,3a6.24,6.24,0,0,1,.35,2.14,5.43,5.43,0,0,1-.77,3,4.36,4.36,0,0,1-2.16,1.73l4.27,4.32Z" style="fill:#231f20"/><path d="M18,14.2V0H30.66V2.48H20.44v9.24H30.68V14.2ZM22.26,8V5.94h7.87V8Z" style="fill:#231f20"/><path d="M44,9.45l-2.2,4.16a1.57,1.57,0,0,1-.55.59,1.46,1.46,0,0,1-2-.59L31.85,0h3l5.74,10.91L42.7,7.05,39,0h3l5.49,10.91L53.27,0H56L48.7,13.61a1.52,1.52,0,0,1-.56.59,1.45,1.45,0,0,1-.73.19,1.39,1.39,0,0,1-.72-.19,1.43,1.43,0,0,1-.55-.59Z" style="fill:#231f20"/><path d="M62.15,14.2a6.71,6.71,0,0,1-2.74-.56,6.89,6.89,0,0,1-2.19-1.52,6.8,6.8,0,0,1-1.44-2.3A7.71,7.71,0,0,1,55.26,7a7.49,7.49,0,0,1,.52-2.85,6.28,6.28,0,0,1,1.44-2.2A6.57,6.57,0,0,1,59.41.5,7.42,7.42,0,0,1,62.15,0h3.46a7.57,7.57,0,0,1,2.82.51,6.29,6.29,0,0,1,3.62,3.62A7.53,7.53,0,0,1,72.56,7,7.71,7.71,0,0,1,72,9.82a7,7,0,0,1-1.44,2.3,6.82,6.82,0,0,1-2.2,1.52,6.92,6.92,0,0,1-2.79.56Zm3.46-2.48a4.37,4.37,0,0,0,1.79-.36,4.24,4.24,0,0,0,1.42-1,4.39,4.39,0,0,0,.93-1.48,5.11,5.11,0,0,0,.33-1.85,5.07,5.07,0,0,0-.33-1.85,4.2,4.2,0,0,0-2.35-2.4,4.53,4.53,0,0,0-1.79-.34H62.15a4.47,4.47,0,0,0-1.77.34,4.24,4.24,0,0,0-1.39,1,4.28,4.28,0,0,0-.92,1.44,5,5,0,0,0-.33,1.86,5.11,5.11,0,0,0,.33,1.85A4.37,4.37,0,0,0,59,10.4a4.12,4.12,0,0,0,1.39,1,4.31,4.31,0,0,0,1.77.36Z" style="fill:#231f20"/><path d="M81.05,14.2a6.71,6.71,0,0,1-2.74-.56,6.89,6.89,0,0,1-2.19-1.52,6.8,6.8,0,0,1-1.44-2.3A7.71,7.71,0,0,1,74.16,7a7.49,7.49,0,0,1,.52-2.85,6.28,6.28,0,0,1,1.44-2.2A6.57,6.57,0,0,1,78.31.5,7.42,7.42,0,0,1,81.05,0h3.46a7.53,7.53,0,0,1,2.82.51,6.57,6.57,0,0,1,2.2,1.42A6.57,6.57,0,0,1,91,4.13,7.53,7.53,0,0,1,91.46,7a7.71,7.71,0,0,1-.52,2.87,7,7,0,0,1-1.44,2.3,6.82,6.82,0,0,1-2.2,1.52,6.92,6.92,0,0,1-2.79.56Zm3.46-2.48a4.37,4.37,0,0,0,1.79-.36,4.2,4.2,0,0,0,2.35-2.44A5.11,5.11,0,0,0,89,7.07a5.07,5.07,0,0,0-.33-1.85,4.2,4.2,0,0,0-.93-1.45,4.37,4.37,0,0,0-1.42-1,4.53,4.53,0,0,0-1.79-.34H81.05a4.47,4.47,0,0,0-1.77.34,4.24,4.24,0,0,0-1.39,1A4.28,4.28,0,0,0,77,5.21a5,5,0,0,0-.33,1.86A5.11,5.11,0,0,0,77,8.92a4.37,4.37,0,0,0,.92,1.48,4.12,4.12,0,0,0,1.39,1,4.31,4.31,0,0,0,1.77.36Z" style="fill:#231f20"/><path d="M93.47,14.2V0h8.22a7.34,7.34,0,0,1,2.77.51,6.42,6.42,0,0,1,2.19,1.42,6.59,6.59,0,0,1,1.43,2.2A7.34,7.34,0,0,1,108.6,7a7.71,7.71,0,0,1-.52,2.87,6.93,6.93,0,0,1-1.43,2.3,6.67,6.67,0,0,1-2.19,1.52,6.82,6.82,0,0,1-2.77.56Zm8.22-2.48a4.31,4.31,0,0,0,1.77-.36,4.16,4.16,0,0,0,1.4-1,4.24,4.24,0,0,0,.93-1.48,5.11,5.11,0,0,0,.33-1.85,5.07,5.07,0,0,0-.33-1.85,4.2,4.2,0,0,0-.93-1.45,4.28,4.28,0,0,0-1.4-1,4.47,4.47,0,0,0-1.77-.34H95.93v9.24Z" style="fill:#231f20"/><path d="M54.52,19.15h0a.56.56,0,0,0-.17-.38.51.51,0,0,0-.37-.15h-.11v-.09h.67Zm0,4.69v.61h-.67v-.08H54a.49.49,0,0,0,.37-.16.53.53,0,0,0,.17-.37Zm1.71-5.31v5.92H54.5V18.53Zm2.37,0V19H56.21v-.43Zm-.45,2.79v.43H56.21v-.43Zm-1.94,2.52h0a.53.53,0,0,0,.17.37.49.49,0,0,0,.37.16h.11v.08h-.67Zm1.94-3.48v1h-1v0a.91.91,0,0,0,.92-.93v0Zm0,1.37v1h-.08v0a.89.89,0,0,0-.92-.92v0Zm.45-2.79v1.18h-.08v-.07a1.12,1.12,0,0,0-.29-.8,1.14,1.14,0,0,0-.81-.3H58.6Zm0-.56v.24l-1-.09.39,0,.39-.06Z" style="fill:#231f20"/><path d="M59.79,18.53V19h0a.44.44,0,0,0-.13-.31.52.52,0,0,0-.32-.11h-.14v-.09Zm1.71,0v3.72a2.41,2.41,0,0,0,.19,1,1.43,1.43,0,0,0,.53.65,1.46,1.46,0,0,0,.82.22,1.59,1.59,0,0,0,.84-.21,1.42,1.42,0,0,0,.52-.61,2.16,2.16,0,0,0,.19-1V18.53h.74v3.75a2.44,2.44,0,0,1-.3,1.23,2.06,2.06,0,0,1-.86.79,3.2,3.2,0,0,1-1.38.27,4.64,4.64,0,0,1-1.71-.27,2,2,0,0,1-1-.79,2.2,2.2,0,0,1-.32-1.22V18.53Zm.59,0v.09H62a.52.52,0,0,0-.32.11.44.44,0,0,0-.13.31h0v-.51Zm2.53,0V19h0a.4.4,0,0,0-.13-.31.5.5,0,0,0-.32-.11H64v-.09Zm1.29,0v.09h-.14a.47.47,0,0,0-.31.11.4.4,0,0,0-.13.31h0v-.51Z" style="fill:#231f20"/><path d="M66.92,19.15h0a.56.56,0,0,0-.17-.38.51.51,0,0,0-.37-.15h-.11v-.09h.67Zm0,4.69v.61h-.67v-.08h.11a.49.49,0,0,0,.37-.16.53.53,0,0,0,.17-.37Zm1.72-5.31v5.92H66.9V18.53Zm.92,0a4.08,4.08,0,0,1,.77.07,2.16,2.16,0,0,1,.73.24,1.38,1.38,0,0,1,.74,1.29,2,2,0,0,1-.12.66,1.53,1.53,0,0,1-.41.61,1.67,1.67,0,0,1-.83.34,1.5,1.5,0,0,1,.62.34,2.65,2.65,0,0,1,.42.5l.08.15.17.29c.07.12.15.24.23.36l.24.35a3,3,0,0,0,.33.39.84.84,0,0,0,.3.19,1.48,1.48,0,0,0,.35.06v.08H72.12a6.86,6.86,0,0,1-.94-.06,1.9,1.9,0,0,1-.77-.26,1.8,1.8,0,0,1-.61-.64,1.77,1.77,0,0,1-.15-.31c0-.1-.07-.2-.1-.29a1.64,1.64,0,0,1-.07-.28l-.06-.25-.06-.23a1,1,0,0,0-.2-.42.79.79,0,0,0-.24-.15v-.08h.14a.85.85,0,0,0,.42-.11.93.93,0,0,0,.31-.34,1.58,1.58,0,0,0,.17-.59c0-.05,0-.1,0-.15v-.2a1.21,1.21,0,0,0-.31-.87A.92.92,0,0,0,69,19h-.39l-.09-.44Zm-.94,5.31h0a.55.55,0,0,0,.54.53h.1v.08h-.66Z" style="fill:#231f20"/><path d="M73.53,23.85v.6h-.7v-.08H73a.49.49,0,0,0,.36-.15.49.49,0,0,0,.16-.37Zm0-5.45,1.76,1.83v4.22H73.51v-5a5.88,5.88,0,0,0-.11-1.06Zm0,0,5.71,5.08.11,1.09L73.59,19.5Zm1.77,5.45a.51.51,0,0,0,.15.37.5.5,0,0,0,.37.15h.16v.08h-.71v-.6Zm1.6-5.32h.7v.6h0a.51.51,0,0,0-.15-.37.53.53,0,0,0-.37-.14h-.16Zm2.42,0v5a4.91,4.91,0,0,0,0,.59,4.17,4.17,0,0,0,.08.49H79.3l-1.77-2V18.53Zm.67,0v.09h-.15a.51.51,0,0,0-.52.51h0v-.6Z" style="fill:#231f20"/><path d="M80.87,19.15h0a.56.56,0,0,0-.17-.38.51.51,0,0,0-.37-.15H80.2v-.09h.67Zm0,4.69v.61H80.2v-.08h.11a.49.49,0,0,0,.37-.16.53.53,0,0,0,.17-.37Zm1.71-5.31v5.92H80.85V18.53Zm0,.62v-.62h.67v.09h-.1a.52.52,0,0,0-.38.15.56.56,0,0,0-.17.38Zm0,4.69h0a.53.53,0,0,0,.17.37.49.49,0,0,0,.38.16h.1v.08h-.67Z" style="fill:#231f20"/><path d="M83.56,18.37l.26.07.39.06.39,0-1,.1Zm5.75.15V19H83.56v-.43Zm-4.57.4v0a1.06,1.06,0,0,0-.8.3,1.09,1.09,0,0,0-.29.8v.06h-.09V18.92Zm.86,4.92v.61h-.68v-.08H85a.51.51,0,0,0,.38-.16.57.57,0,0,0,.16-.37Zm1.7-5.28v5.89H85.57V18.56Zm0,5.28h0a.53.53,0,0,0,.17.37.49.49,0,0,0,.38.16H88v.08h-.68Zm2-4.92v1.19h-.09v-.06a1.08,1.08,0,0,0-.28-.8,1.06,1.06,0,0,0-.81-.3v0Zm0-.55v.25l-1-.1.39,0,.39-.06A1.35,1.35,0,0,0,89.31,18.37Z" style="fill:#231f20"/><path d="M90.25,18.53V19h0a.4.4,0,0,0-.13-.31.5.5,0,0,0-.32-.11h-.13v-.09Zm1.71,0v3.72a2.59,2.59,0,0,0,.18,1,1.37,1.37,0,0,0,1.36.87,1.57,1.57,0,0,0,.83-.21,1.44,1.44,0,0,0,.53-.61,2.31,2.31,0,0,0,.19-1V18.53h.73v3.75a2.44,2.44,0,0,1-.3,1.23,2,2,0,0,1-.86.79,3.2,3.2,0,0,1-1.38.27,4.62,4.62,0,0,1-1.7-.27,2.12,2.12,0,0,1-1-.79,2.29,2.29,0,0,1-.32-1.22V18.53Zm.58,0v.09h-.13a.5.5,0,0,0-.32.11A.4.4,0,0,0,92,19h0v-.51Zm2.53,0V19h0a.41.41,0,0,0-.14-.31.47.47,0,0,0-.31-.11h-.14v-.09Zm1.29,0v.09h-.13a.52.52,0,0,0-.32.11.4.4,0,0,0-.13.31h0v-.51Z" style="fill:#231f20"/><path d="M97.38,19.15h0a.55.55,0,0,0-.16-.38.54.54,0,0,0-.38-.15H96.7v-.09h.68Zm0,4.69v.61H96.7v-.08h.11a.51.51,0,0,0,.38-.16.52.52,0,0,0,.16-.37Zm1.72-5.31v5.92H97.35V18.53Zm.91,0a4.26,4.26,0,0,1,.78.07,2.24,2.24,0,0,1,.73.24,1.47,1.47,0,0,1,.53.49,1.48,1.48,0,0,1,.2.8,2,2,0,0,1-.12.66,1.44,1.44,0,0,1-.41.61,1.63,1.63,0,0,1-.82.34,1.57,1.57,0,0,1,.62.34,2.58,2.58,0,0,1,.41.5l.09.15c0,.08.1.17.17.29s.14.24.22.36l.24.35a2.94,2.94,0,0,0,.34.39.73.73,0,0,0,.29.19,1.7,1.7,0,0,0,.35.06v.08h-1.06a7,7,0,0,1-.94-.06,2,2,0,0,1-.77-.26,1.7,1.7,0,0,1-.6-.64,1.3,1.3,0,0,1-.16-.31c0-.1-.07-.2-.1-.29s0-.19-.07-.28a2.21,2.21,0,0,1-.05-.25l-.06-.23a1,1,0,0,0-.21-.42.9.9,0,0,0-.23-.15v-.08h.13a.82.82,0,0,0,.42-.11,1,1,0,0,0,.32-.34,1.79,1.79,0,0,0,.17-.59c0-.05,0-.1,0-.15a.67.67,0,0,0,0-.2,1.17,1.17,0,0,0-.31-.87.91.91,0,0,0-.65-.25h-.4L99,18.53Zm-.94,5.31h0a.49.49,0,0,0,.16.37.49.49,0,0,0,.38.16h.1v.08h-.67Z" style="fill:#231f20"/><path d="M104.05,19.15h0a.59.59,0,0,0-.16-.38.54.54,0,0,0-.38-.15h-.11v-.09h.68Zm0,4.69v.61h-.68v-.08h.11a.51.51,0,0,0,.38-.16.57.57,0,0,0,.16-.37Zm1.7-5.31v5.92H104V18.53Zm2.37,0V19h-2.39v-.43Zm-.44,2.79v.43h-2v-.43ZM108,24l.34.43h-2.56V24Zm.69-1.53-.32,2h-1.83l.31-.43a1.6,1.6,0,0,0,.75-.18,1.92,1.92,0,0,0,.62-.52,2.35,2.35,0,0,0,.38-.83Zm-1-2.13v1h-1v0a.9.9,0,0,0,.66-.27.85.85,0,0,0,.25-.66v0Zm0,1.37v1h-.09v0a.89.89,0,0,0-.91-.92v0Zm.44-2.79v1.18H108v-.07a1.12,1.12,0,0,0-.29-.8,1.14,1.14,0,0,0-.8-.3h1.17Zm0-.56v.24l-1-.09.39,0,.39-.06Z" style="fill:#231f20"/></g></g></svg>