<?xml version="1.0" encoding="utf-8"?>
<!-- Generator: Adobe Illustrator 24.3.0, SVG Export Plug-In . SVG Version: 6.00 Build 0)  -->
<svg version="1.1" id="Layer_1" xmlns="http://www.w3.org/2000/svg" xmlns:xlink="http://www.w3.org/1999/xlink" x="0px" y="0px"
	 viewBox="0 0 248.8 345.1" style="enable-background:new 0 0 248.8 345.1;" xml:space="preserve">
<style type="text/css">
	.st0{fill:#EDEDEE;}
</style>
<path class="st0" d="M86,149.5l86.4,146.3h42.6c0,0-75-125.6-87.6-146.3c82-35.8,57.5-149.4,57.5-149.4s-8.1-0.3-35.4,0
	c5.1,16.6,5.5,47.6,0,69.2C135.7,120,86,117,86,117L0,117v177.3h32.8V149.5H86z"/>
<path class="st0" d="M35.8,330.7l-6.4,12.2c-0.4,0.7-0.9,1.3-1.6,1.7c-0.6,0.4-1.4,0.6-2.1,0.6c-1.6,0-3-0.9-3.7-2.3L0.8,303h8.6
	l16.6,32l6.3-11.3L21.5,303h8.6l15.9,32l16.7-32h8.1l-21.3,39.9c-0.4,0.7-0.9,1.3-1.6,1.7c-0.6,0.4-1.4,0.6-2.1,0.6
	c-0.7,0-1.5-0.2-2.1-0.6c-0.7-0.4-1.2-1-1.6-1.7L35.8,330.7z"/>
<path class="st0" d="M88.4,344.6c-2.7,0-5.4-0.5-7.9-1.6c-2.4-1.1-4.5-2.6-6.3-4.5c-1.8-1.9-3.2-4.2-4.2-6.7c-1-2.7-1.5-5.5-1.5-8.4
	c0-2.9,0.5-5.7,1.5-8.4c0.9-2.4,2.4-4.6,4.2-6.4c1.8-1.8,4-3.2,6.3-4.1c2.5-1,5.2-1.5,7.9-1.5h10c2.8,0,5.6,0.5,8.2,1.5
	c2.4,0.9,4.5,2.4,6.3,4.2c1.8,1.8,3.2,4,4.1,6.4c1,2.6,1.5,5.4,1.5,8.3c0,2.9-0.5,5.7-1.5,8.4c-0.9,2.5-2.4,4.8-4.2,6.7
	c-3.7,4-9,6.2-14.4,6.1H88.4z M98.5,337.3c1.8,0,3.6-0.3,5.2-1c1.5-0.7,2.9-1.6,4.1-2.8c1.2-1.2,2.1-2.7,2.7-4.3
	c1.3-3.5,1.3-7.3,0-10.8c-0.6-1.6-1.5-3-2.7-4.3c-1.2-1.2-2.6-2.1-4.1-2.8c-1.6-0.7-3.4-1-5.2-1h-10c-1.8,0-3.5,0.3-5.1,1
	c-1.5,0.6-2.9,1.6-4,2.8c-1.2,1.2-2.1,2.7-2.7,4.2c-0.7,1.7-1,3.6-1,5.4c0,1.9,0.3,3.7,1,5.4c0.6,1.6,1.5,3.1,2.7,4.3
	c1.1,1.2,2.5,2.2,4,2.8c1.6,0.7,3.3,1,5.1,1L98.5,337.3z"/>
<path class="st0" d="M143.1,344.6c-2.7,0-5.4-0.5-7.9-1.6c-2.4-1.1-4.5-2.6-6.3-4.5c-1.8-1.9-3.2-4.2-4.2-6.7
	c-1-2.7-1.5-5.5-1.5-8.4c0-2.9,0.5-5.7,1.5-8.4c0.9-2.4,2.4-4.6,4.2-6.4c1.8-1.8,4-3.2,6.3-4.1c2.5-1,5.2-1.5,7.9-1.5h10
	c2.8,0,5.6,0.5,8.2,1.5c4.8,1.9,8.6,5.8,10.5,10.6c1,2.6,1.5,5.4,1.5,8.3c0,2.9-0.5,5.7-1.5,8.4c-0.9,2.5-2.4,4.8-4.2,6.7
	c-3.7,4-9,6.2-14.4,6.1H143.1z M153.1,337.3c1.8,0,3.6-0.3,5.2-1c3.2-1.3,5.6-3.9,6.8-7.2c1.3-3.5,1.3-7.3,0-10.8
	c-1.2-3.2-3.6-5.7-6.8-7c-1.6-0.7-3.4-1-5.2-1h-10c-1.8,0-3.5,0.3-5.1,1c-1.5,0.6-2.9,1.6-4,2.8c-1.2,1.2-2.1,2.7-2.7,4.2
	c-0.7,1.7-1,3.6-1,5.4c0,1.9,0.3,3.7,1,5.4c0.6,1.6,1.5,3.1,2.7,4.3c1.1,1.2,2.5,2.2,4,2.8c1.6,0.7,3.4,1,5.1,1L153.1,337.3z"/>
<path class="st0" d="M179,344.6V303h23.8c2.7,0,5.5,0.5,8,1.5c2.4,0.9,4.5,2.4,6.3,4.2c1.8,1.8,3.2,4,4.1,6.4c1,2.6,1.5,5.4,1.5,8.3
	c0,2.9-0.5,5.7-1.5,8.4c-0.9,2.5-2.3,4.8-4.1,6.7c-3.7,3.9-8.9,6.2-14.3,6.1L179,344.6z M202.7,337.3c1.8,0,3.5-0.3,5.1-1
	c3.1-1.4,5.6-3.9,6.7-7.2c1.3-3.5,1.3-7.3,0-10.8c-1.2-3.2-3.6-5.7-6.7-7c-1.6-0.7-3.4-1-5.1-1h-16.7v27.1L202.7,337.3z"/>
<path class="st0" d="M232,262.1c-9.3,0-16.8,7.5-16.8,16.8s7.5,16.8,16.8,16.8s16.8-7.5,16.8-16.8S241.3,262.1,232,262.1z
	 M232,291.1c-6.7,0-12.2-5.5-12.2-12.2s5.5-12.2,12.2-12.2s12.2,5.5,12.2,12.2S238.7,291.1,232,291.1z M238.1,276.8
	c0-3.4-2.4-5.5-6.2-5.5h-5.7v15.4h3.3v-4.3h2.4c0.1,0,0.3,0,0.4,0l3.1,4.3h4l-3.8-5.2C237.3,280.4,238.1,278.8,238.1,276.8z
	 M231.9,279.1h-2.4v-4.6h2.4c3,0,3,1.7,3,2.2C234.9,277.3,234.9,279.1,231.9,279.1z"/>
</svg>
