<svg xmlns="http://www.w3.org/2000/svg" width="296.02" height="410.89" viewBox="0 0 296.02 410.89"><defs><style>.a{fill:#ededee;}</style></defs><path class="a" d="M102.3,177.93,205.15,352h50.67s-89.22-149.38-104.23-174C249.21,135.39,220,.18,220,.18s-9.64-.41-42.13,0c6.05,19.69,6.61,56.59,0,82.34-16.39,60.3-75.59,56.72-75.59,56.72H0V350.17H39V177.93Z"/><path class="a" d="M42.54,393.54,35,408A5.41,5.41,0,0,1,33,410.07a5.21,5.21,0,0,1-2.47.69A4.9,4.9,0,0,1,26.16,408L1,360.64H11.15l19.69,38.14,7.44-13.5L25.47,360.64H35.8l18.86,38.14,19.83-38.14h9.63l-25.33,47.5a5.46,5.46,0,0,1-1.93,2.06,4.78,4.78,0,0,1-5,0A5.53,5.53,0,0,1,50,408.14Z"/><path class="a" d="M105.19,410.07a22,22,0,0,1-9.36-1.93,22.51,22.51,0,0,1-7.44-5.37,21.74,21.74,0,0,1-5-8,27.36,27.36,0,0,1-1.79-10,28.07,28.07,0,0,1,1.79-10.05,21.64,21.64,0,0,1,12.39-12.39,24.58,24.58,0,0,1,9.36-1.79H117a26.81,26.81,0,0,1,9.78,1.79,21.32,21.32,0,0,1,7.43,5,20.29,20.29,0,0,1,4.82,7.57,26.24,26.24,0,0,1,1.79,9.91,28.25,28.25,0,0,1-1.79,10,25.28,25.28,0,0,1-5,8,22.64,22.64,0,0,1-17.07,7.3Zm12-8.68a15.28,15.28,0,0,0,6.19-1.24,16.6,16.6,0,0,0,4.82-3.3,13.87,13.87,0,0,0,3.17-5.09,18.68,18.68,0,0,0,0-12.81,15.15,15.15,0,0,0-3.17-5.09,16.63,16.63,0,0,0-4.82-3.31,15.63,15.63,0,0,0-6.19-1.24H105.33a15,15,0,0,0-6.06,1.24,14.32,14.32,0,0,0-4.82,3.31,14.62,14.62,0,0,0-3.17,4.95,17.56,17.56,0,0,0,0,12.95,14.14,14.14,0,0,0,3.17,5.09,14.29,14.29,0,0,0,4.82,3.3,15.39,15.39,0,0,0,6.06,1.24Z"/><path class="a" d="M170.31,410.07a22,22,0,0,1-9.36-1.93,22.47,22.47,0,0,1-7.43-5.37,25.28,25.28,0,0,1-5-8,27.57,27.57,0,0,1-1.79-10,28.29,28.29,0,0,1,1.79-10.05A21.72,21.72,0,0,1,161,362.29a24.65,24.65,0,0,1,9.36-1.79h11.85a26.76,26.76,0,0,1,9.77,1.79A22.64,22.64,0,0,1,204.46,375a26.43,26.43,0,0,1,1.79,9.91,28.25,28.25,0,0,1-1.79,10.05,25.28,25.28,0,0,1-5,8,22.59,22.59,0,0,1-17.07,7.29H170.31Zm11.85-8.68a15.35,15.35,0,0,0,6.19-1.24,14.53,14.53,0,0,0,8.12-8.53,18.56,18.56,0,0,0,0-12.81,13.79,13.79,0,0,0-8.12-8.26,15.7,15.7,0,0,0-6.19-1.24H170.31a15,15,0,0,0-6.05,1.24,14.32,14.32,0,0,0-4.82,3.31,14.47,14.47,0,0,0-3.17,4.95,17.56,17.56,0,0,0,0,12.95,13.87,13.87,0,0,0,3.17,5.09,14.29,14.29,0,0,0,4.82,3.3,15.34,15.34,0,0,0,6.05,1.24Z"/><path class="a" d="M213,410.07V360.64h28.36a24.75,24.75,0,0,1,9.5,1.79,21.32,21.32,0,0,1,7.43,5,20.16,20.16,0,0,1,4.82,7.57,26.24,26.24,0,0,1,1.79,9.91,28,28,0,0,1-1.79,10.05,24.75,24.75,0,0,1-4.82,8,22.88,22.88,0,0,1-17.07,7.29H213Zm28.22-8.68a14.77,14.77,0,0,0,14-9.77,18.56,18.56,0,0,0,0-12.81,13.9,13.9,0,0,0-8-8.26,15.42,15.42,0,0,0-6.06-1.24H221.39v32.22Z"/><path class="a" d="M276.06,311.9a20,20,0,1,0,20,20v0A20,20,0,0,0,276.06,311.9Zm0,34.56A14.46,14.46,0,1,1,290.51,332,14.46,14.46,0,0,1,276.06,346.46Zm7.29-17.08c0-4-2.89-6.6-7.43-6.6h-6.75v18.31h4V336h3.31l3.72,5.1H285l-4.54-6.2a6.06,6.06,0,0,0,2.89-5.47Zm-7.43,2.76H273v-5.51h2.89c3.58,0,3.58,2.07,3.58,2.62,0,.82,0,2.89-3.58,2.89Z"/></svg>