<?xml version="1.0" encoding="utf-8"?>
<!-- Generator: Adobe Illustrator 24.3.0, SVG Export Plug-In . SVG Version: 6.00 Build 0)  -->
<svg version="1.1" id="Layer_1" xmlns="http://www.w3.org/2000/svg" xmlns:xlink="http://www.w3.org/1999/xlink" x="0px" y="0px"
	 viewBox="0 0 215 298.3" style="enable-background:new 0 0 215 298.3;" xml:space="preserve">
<style type="text/css">
	.st0{fill:#EDEDEE;}
</style>
<path class="st0" d="M74.3,129.2L149,255.6h36.8c0,0-64.8-108.5-75.7-126.4C181,98.3,159.8,0.1,159.8,0.1s-7-0.3-30.6,0
	c4.4,14.3,4.8,41.1,0,59.8c-11.9,43.8-54.9,41.2-54.9,41.2H0v153.2h28.3V129.2H74.3z"/>
<path class="st0" d="M30.9,285.8l-5.5,10.5c-0.3,0.6-0.8,1.1-1.4,1.5c-0.5,0.3-1.2,0.5-1.8,0.5c-1.4,0-2.6-0.8-3.2-2L0.7,261.9h7.4
	l14.3,27.7l5.4-9.8l-9.3-17.9H26l13.7,27.7l14.4-27.7h7l-18.4,34.5c-0.3,0.6-0.8,1.1-1.4,1.5c-0.5,0.3-1.2,0.5-1.8,0.5
	c-0.6,0-1.3-0.2-1.8-0.5c-0.6-0.3-1-0.9-1.4-1.5L30.9,285.8z"/>
<path class="st0" d="M76.4,297.8c-2.3,0-4.7-0.4-6.8-1.4c-2.1-1-3.9-2.2-5.4-3.9c-1.6-1.6-2.8-3.6-3.6-5.8c-0.9-2.3-1.3-4.8-1.3-7.3
	c0-2.5,0.4-4.9,1.3-7.3c0.8-2.1,2.1-4,3.6-5.5s3.5-2.8,5.4-3.5c2.2-0.9,4.5-1.3,6.8-1.3H85c2.4,0,4.8,0.4,7.1,1.3
	c2.1,0.8,3.9,2.1,5.4,3.6c1.6,1.6,2.8,3.5,3.5,5.5c0.9,2.2,1.3,4.7,1.3,7.2c0,2.5-0.4,4.9-1.3,7.3c-0.8,2.2-2.1,4.1-3.6,5.8
	c-3.2,3.5-7.8,5.4-12.4,5.3H76.4z M85.1,291.5c1.6,0,3.1-0.3,4.5-0.9c1.3-0.6,2.5-1.4,3.5-2.4c1-1,1.8-2.3,2.3-3.7
	c1.1-3,1.1-6.3,0-9.3c-0.5-1.4-1.3-2.6-2.3-3.7c-1-1-2.2-1.8-3.5-2.4c-1.4-0.6-2.9-0.9-4.5-0.9h-8.6c-1.6,0-3,0.3-4.4,0.9
	c-1.3,0.5-2.5,1.4-3.5,2.4c-1,1-1.8,2.3-2.3,3.6c-0.6,1.5-0.9,3.1-0.9,4.7c0,1.6,0.3,3.2,0.9,4.7c0.5,1.4,1.3,2.7,2.3,3.7
	c1,1,2.2,1.9,3.5,2.4c1.4,0.6,2.9,0.9,4.4,0.9L85.1,291.5z"/>
<path class="st0" d="M123.7,297.8c-2.3,0-4.7-0.4-6.8-1.4c-2.1-1-3.9-2.2-5.4-3.9s-2.8-3.6-3.6-5.8c-0.9-2.3-1.3-4.8-1.3-7.3
	c0-2.5,0.4-4.9,1.3-7.3c0.8-2.1,2.1-4,3.6-5.5s3.5-2.8,5.4-3.5c2.2-0.9,4.5-1.3,6.8-1.3h8.6c2.4,0,4.8,0.4,7.1,1.3
	c4.1,1.6,7.4,5,9.1,9.2c0.9,2.2,1.3,4.7,1.3,7.2c0,2.5-0.4,4.9-1.3,7.3c-0.8,2.2-2.1,4.1-3.6,5.8c-3.2,3.5-7.8,5.4-12.4,5.3H123.7z
	 M132.3,291.5c1.6,0,3.1-0.3,4.5-0.9c2.8-1.1,4.8-3.4,5.9-6.2c1.1-3,1.1-6.3,0-9.3c-1-2.8-3.1-4.9-5.9-6c-1.4-0.6-2.9-0.9-4.5-0.9
	h-8.6c-1.6,0-3,0.3-4.4,0.9c-1.3,0.5-2.5,1.4-3.5,2.4c-1,1-1.8,2.3-2.3,3.6c-0.6,1.5-0.9,3.1-0.9,4.7c0,1.6,0.3,3.2,0.9,4.7
	c0.5,1.4,1.3,2.7,2.3,3.7c1,1,2.2,1.9,3.5,2.4c1.4,0.6,2.9,0.9,4.4,0.9L132.3,291.5z"/>
<path class="st0" d="M154.7,297.8v-35.9h20.6c2.3,0,4.8,0.4,6.9,1.3c2.1,0.8,3.9,2.1,5.4,3.6c1.6,1.6,2.8,3.5,3.5,5.5
	c0.9,2.2,1.3,4.7,1.3,7.2c0,2.5-0.4,4.9-1.3,7.3c-0.8,2.2-2,4.1-3.5,5.8c-3.2,3.4-7.7,5.4-12.4,5.3H154.7z M175.2,291.5
	c1.6,0,3-0.3,4.4-0.9c2.7-1.2,4.8-3.4,5.8-6.2c1.1-3,1.1-6.3,0-9.3c-1-2.8-3.1-4.9-5.8-6c-1.4-0.6-2.9-0.9-4.4-0.9h-14.4v23.4
	L175.2,291.5z"/>
<path class="st0" d="M200.5,226.5c-8,0-14.5,6.5-14.5,14.5s6.5,14.5,14.5,14.5S215,249.1,215,241S208.5,226.5,200.5,226.5z
	 M200.5,251.6c-5.8,0-10.5-4.8-10.5-10.5s4.8-10.5,10.5-10.5c5.8,0,10.5,4.8,10.5,10.5S206.3,251.6,200.5,251.6z M205.8,239.2
	c0-2.9-2.1-4.8-5.4-4.8h-4.9v13.3h2.9v-3.7h2.1c0.1,0,0.3,0,0.3,0l2.7,3.7h3.5l-3.3-4.5C205.1,242.3,205.8,241,205.8,239.2z
	 M200.4,241.2h-2.1v-4h2.1c2.6,0,2.6,1.5,2.6,1.9C203,239.7,203,241.2,200.4,241.2z"/>
</svg>
