<svg id="Layer_1" data-name="Layer 1" xmlns="http://www.w3.org/2000/svg" width="87.78mm" height="136.02mm" viewBox="0 0 248.81 385.56"><path d="M96.08,167l96.57,163.39h47.64S156.51,190.08,142.48,167C234.05,127,206.73.14,206.73.14s-9-.31-39.5,0c5.67,18.56,6.09,53.21,0,77.34-15.67,56.61-71.15,53.28-71.15,53.28L0,130.69V328.75H36.68V167Z" style="fill:#ededee"/><path d="M40,369.39,32.88,383a4.91,4.91,0,0,1-1.76,1.92,4.57,4.57,0,0,1-2.34.64A4.47,4.47,0,0,1,24.62,383L.91,338.46h9.58L29,374.18,36,361.53,24.05,338.46H33.7l17.72,35.72,18.67-35.72h9L55.33,383a4.83,4.83,0,0,1-1.79,1.92,4.74,4.74,0,0,1-2.37.64,4.51,4.51,0,0,1-2.33-.64A4.86,4.86,0,0,1,47.07,383Z" style="fill:#ededee"/><path d="M98.78,384.92a21.54,21.54,0,0,1-8.86-1.82,22.13,22.13,0,0,1-7.06-5,22.6,22.6,0,0,1-4.67-7.51,26,26,0,0,1-1.67-9.39,25.19,25.19,0,0,1,1.67-9.33,20.8,20.8,0,0,1,4.67-7.19,21.1,21.1,0,0,1,7.06-4.6,23.78,23.78,0,0,1,8.86-1.63H110a24.33,24.33,0,0,1,9.11,1.66,20.71,20.71,0,0,1,7.09,4.67,21,21,0,0,1,4.61,7.19,25.17,25.17,0,0,1,1.64,9.23,26,26,0,0,1-1.67,9.39,22.6,22.6,0,0,1-4.67,7.51A21.73,21.73,0,0,1,110,384.92ZM110,376.8a14.37,14.37,0,0,0,5.8-1.15,14,14,0,0,0,4.57-3.16,14.3,14.3,0,0,0,3-4.83,17.67,17.67,0,0,0,0-12.11,14.19,14.19,0,0,0-3-4.76,13.85,13.85,0,0,0-4.57-3.1,14.88,14.88,0,0,0-5.8-1.11H98.78a14.41,14.41,0,0,0-5.7,1.11,13.5,13.5,0,0,0-4.51,3.1,14.51,14.51,0,0,0-3,4.73,16.68,16.68,0,0,0-1.07,6.07,17,17,0,0,0,1.07,6.07,14.56,14.56,0,0,0,3,4.83,13.65,13.65,0,0,0,4.51,3.16,13.92,13.92,0,0,0,5.7,1.15Z" style="fill:#ededee"/><path d="M159.83,384.92A21.47,21.47,0,0,1,151,383.1a22,22,0,0,1-7.06-5,22.44,22.44,0,0,1-4.67-7.51,25.76,25.76,0,0,1-1.67-9.39,25,25,0,0,1,1.67-9.33,20.66,20.66,0,0,1,4.67-7.19,21,21,0,0,1,7.06-4.6,23.71,23.71,0,0,1,8.86-1.63H171a24.42,24.42,0,0,1,9.12,1.66A20.46,20.46,0,0,1,191.8,352a25,25,0,0,1,1.64,9.23,25.76,25.76,0,0,1-1.67,9.39,22.58,22.58,0,0,1-4.66,7.51A21.77,21.77,0,0,1,171,384.92ZM171,376.8a14.33,14.33,0,0,0,5.8-1.15,13.73,13.73,0,0,0,7.57-8,17.67,17.67,0,0,0,0-12.11,13.54,13.54,0,0,0-7.57-7.86,14.84,14.84,0,0,0-5.8-1.11H159.83a14.5,14.5,0,0,0-5.71,1.11,13.6,13.6,0,0,0-4.51,3.1,14.32,14.32,0,0,0-3,4.73,16.47,16.47,0,0,0-1.07,6.07,16.73,16.73,0,0,0,1.07,6.07,14.37,14.37,0,0,0,3,4.83,13.76,13.76,0,0,0,4.51,3.16,14,14,0,0,0,5.71,1.15Z" style="fill:#ededee"/><path d="M199.94,384.92V338.46h26.55a23.72,23.72,0,0,1,8.95,1.66,20.82,20.82,0,0,1,7.07,4.67,21.39,21.39,0,0,1,4.63,7.19,24.57,24.57,0,0,1,1.67,9.23,25.76,25.76,0,0,1-1.67,9.39,22.83,22.83,0,0,1-4.63,7.51,21.64,21.64,0,0,1-16,6.81Zm26.55-8.12a14,14,0,0,0,5.71-1.15,13.82,13.82,0,0,0,7.53-8,17.67,17.67,0,0,0,0-12.11,13.63,13.63,0,0,0-7.53-7.86,14.5,14.5,0,0,0-5.71-1.11H207.88V376.8Z" style="fill:#ededee"/></svg>